<svg width="136" height="14" viewBox="0 0 136 14" fill="none" xmlns="http://www.w3.org/2000/svg">
<path d="M5.98994 13.4473C4.84338 13.4473 3.8184 13.181 2.915 12.6485C2.01161 12.116 1.29993 11.3484 0.779966 10.3456C0.260006 9.34283 2.6226e-05 8.13844 2.6226e-05 6.73242C2.6226e-05 5.31844 0.261588 4.10953 0.784712 3.1057C1.30784 2.10188 2.02162 1.3333 2.92608 0.799981C3.83053 0.26666 4.85182 0 5.98994 0C6.70689 0 7.37773 0.101425 8.00245 0.304276C8.62718 0.507128 9.18341 0.803553 9.67114 1.19355C10.1589 1.58355 10.5611 2.05898 10.8777 2.61984C11.1943 3.1807 11.4049 3.81913 11.5095 4.53515H9.14348C9.07082 4.14514 8.94173 3.80026 8.75623 3.50049C8.57072 3.20072 8.34015 2.94631 8.06452 2.73725C7.78889 2.52818 7.47852 2.37033 7.1334 2.26369C6.78828 2.15705 6.41978 2.10373 6.02791 2.10373C5.31236 2.10373 4.67773 2.28344 4.12401 2.64285C3.5703 3.00227 3.13735 3.5261 2.82516 4.21434C2.51297 4.90259 2.35687 5.74195 2.35687 6.73242C2.35687 7.7318 2.51496 8.57509 2.83113 9.26228C3.14731 9.94947 3.5812 10.4681 4.1328 10.8183C4.68441 11.1685 5.314 11.3435 6.02158 11.3435C6.41346 11.3435 6.78143 11.2893 7.12549 11.1808C7.46956 11.0722 7.78046 10.9144 8.05819 10.7072C8.33593 10.5 8.56861 10.2456 8.75623 9.94396C8.94384 9.64232 9.07504 9.29837 9.1498 8.91212H11.5158C11.4298 9.54001 11.2385 10.1271 10.9419 10.6734C10.6453 11.2198 10.2578 11.7015 9.7796 12.1187C9.30135 12.5359 8.74354 12.8616 8.10616 13.0959C7.46878 13.3301 6.76337 13.4473 5.98994 13.4473ZM12.3448 13.2715L16.9162 0.175781H19.9002L24.5679 13.2715H21.9938L19.6689 6.47012C19.442 5.76606 19.2047 4.97078 18.957 4.08426C18.7092 3.19775 18.4358 2.1873 18.1368 1.05293H18.6304C18.3393 2.1948 18.0743 3.21275 17.8355 4.10676C17.5966 5.00078 17.3715 5.78856 17.1601 6.47012L14.9112 13.2715H12.3448ZM15.0075 10.0265V8.13727H21.9052V10.0265H15.0075ZM26.3187 13.2715V0.175781H31.2188C32.2214 0.175781 33.065 0.351152 33.7495 0.701894C34.434 1.05264 34.9517 1.54271 35.3027 2.17213C35.6537 2.80154 35.8291 3.53226 35.8291 4.36429C35.8291 5.20054 35.6521 5.92593 35.2979 6.54046C34.9438 7.15499 34.4217 7.62913 33.7317 7.96288C33.0417 8.29663 32.1912 8.4635 31.1801 8.4635H27.687V6.51938H30.87C31.4644 6.51938 31.9494 6.43571 32.3252 6.26836C32.7009 6.10102 32.9791 5.85715 33.1598 5.53676C33.3405 5.21637 33.4308 4.82554 33.4308 4.36429C33.4308 3.89554 33.3405 3.49616 33.1598 3.16616C32.9791 2.83616 32.6999 2.58268 32.3223 2.40572C31.9448 2.22877 31.4569 2.14029 30.8588 2.14029H28.6657V13.2715H26.3187ZM33.6839 13.2715L30.5072 7.33289H33.0715L36.3136 13.2715H33.6839ZM43.8754 5.79024V7.67952H37.9881V5.79024H43.8754ZM52.0183 13.4473C50.8717 13.4473 49.8467 13.181 48.9433 12.6485C48.0399 12.116 47.3282 11.3484 46.8083 10.3456C46.2883 9.34283 46.0283 8.13844 46.0283 6.73242C46.0283 5.31844 46.2899 4.10953 46.813 3.1057C47.3362 2.10188 48.0499 1.3333 48.9544 0.799981C49.8588 0.26666 50.8801 0 52.0183 0C52.7352 0 53.406 0.101425 54.0308 0.304276C54.6555 0.507128 55.2117 0.803553 55.6995 1.19355C56.1872 1.58355 56.5894 2.05898 56.906 2.61984C57.2227 3.1807 57.4333 3.81913 57.5378 4.53515H55.1718C55.0991 4.14514 54.9701 3.80026 54.7845 3.50049C54.599 3.20072 54.3685 2.94631 54.0928 2.73725C53.8172 2.52818 53.5068 2.37033 53.1617 2.26369C52.8166 2.15705 52.4481 2.10373 52.0562 2.10373C51.3407 2.10373 50.706 2.28344 50.1523 2.64285C49.5986 3.00227 49.1657 3.5261 48.8535 4.21434C48.5413 4.90259 48.3852 5.74195 48.3852 6.73242C48.3852 7.7318 48.5433 8.57509 48.8595 9.26228C49.1756 9.94947 49.6095 10.4681 50.1611 10.8183C50.7127 11.1685 51.3423 11.3435 52.0499 11.3435C52.4418 11.3435 52.8097 11.2893 53.1538 11.1808C53.4979 11.0722 53.8088 10.9144 54.0865 10.7072C54.3642 10.5 54.5969 10.2456 54.7845 9.94396C54.9722 9.64232 55.1034 9.29837 55.1781 8.91212H57.5441C57.4581 9.54001 57.2668 10.1271 56.9702 10.6734C56.6736 11.2198 56.2862 11.7015 55.8079 12.1187C55.3297 12.5359 54.7719 12.8616 54.1345 13.0959C53.4971 13.3301 52.7917 13.4473 52.0183 13.4473ZM62.3426 13.4747C61.7194 13.4747 61.1586 13.3622 60.6602 13.1374C60.1618 12.9125 59.7685 12.5797 59.4802 12.1391C59.1919 11.6985 59.0478 11.1548 59.0478 10.5082C59.0478 9.95414 59.1517 9.49605 59.3596 9.13394C59.5675 8.77184 59.8496 8.48232 60.2058 8.26541C60.5621 8.0485 60.9631 7.88444 61.409 7.77322C61.8549 7.66201 62.3159 7.58133 62.7919 7.53117C63.3652 7.46766 63.8295 7.41223 64.185 7.36488C64.5404 7.31754 64.8022 7.24143 64.9704 7.13655C65.1385 7.03166 65.2226 6.8686 65.2226 6.64735V6.60094C65.2226 6.27726 65.1575 6.00339 65.0273 5.77933C64.8971 5.55526 64.705 5.38341 64.4509 5.26376C64.1969 5.14411 63.8824 5.08428 63.5077 5.08428C63.1275 5.08428 62.7979 5.14276 62.5187 5.25971C62.2396 5.37667 62.0118 5.52866 61.8355 5.71569C61.6591 5.90273 61.5298 6.10523 61.4475 6.3232L59.329 5.88866C59.524 5.30788 59.8238 4.82847 60.2283 4.45042C60.6328 4.07238 61.1156 3.78984 61.6766 3.60281C62.2375 3.41578 62.8449 3.32227 63.4985 3.32227C63.9595 3.32227 64.4259 3.37711 64.8976 3.48679C65.3692 3.59648 65.802 3.77906 66.1959 4.03453C66.5897 4.28999 66.9067 4.63505 67.1469 5.0697C67.387 5.50435 67.507 6.04851 67.507 6.70219V13.2715H65.3217V11.9166H65.2289C65.086 12.1957 64.8856 12.4537 64.6279 12.6905C64.3702 12.9274 64.0525 13.1173 63.6747 13.2602C63.2969 13.4032 62.8528 13.4747 62.3426 13.4747ZM62.9283 11.7767C63.4003 11.7767 63.8084 11.6835 64.1526 11.4972C64.4968 11.3108 64.7633 11.063 64.9521 10.7538C65.1409 10.4445 65.2353 10.1086 65.2353 9.74601V8.58304C65.1603 8.64444 65.0344 8.70116 64.8577 8.7532C64.681 8.80523 64.4819 8.85152 64.2606 8.89206C64.0392 8.93261 63.8224 8.96742 63.6102 8.99648C63.3979 9.02554 63.2177 9.04992 63.0696 9.0696C62.7267 9.11437 62.4182 9.19072 62.1441 9.29865C61.87 9.40658 61.6545 9.55564 61.4974 9.74584C61.3404 9.93603 61.2619 10.1817 61.2619 10.4829C61.2619 10.7658 61.3339 11.003 61.4781 11.1946C61.6222 11.3862 61.8192 11.5311 62.0691 11.6293C62.3189 11.7276 62.6053 11.7767 62.9283 11.7767ZM74.475 3.44531V5.23545H68.895V3.44531H74.475ZM70.2893 1.10742H72.5737V10.5043C72.5737 10.8594 72.6499 11.1201 72.8023 11.2864C72.9546 11.4527 73.2061 11.5358 73.5567 11.5358C73.6584 11.5358 73.7954 11.5236 73.9675 11.4991C74.1397 11.4746 74.2786 11.4506 74.3843 11.4272L74.7443 13.1903C74.4938 13.2679 74.2376 13.3229 73.9758 13.3553C73.714 13.3878 73.4605 13.404 73.2154 13.404C72.2751 13.404 71.5523 13.1699 71.0471 12.7016C70.5419 12.2333 70.2893 11.5662 70.2893 10.7002V1.10742ZM80.3711 13.4698C79.4172 13.4698 78.5889 13.2583 77.8864 12.8354C77.1839 12.4124 76.6404 11.8206 76.2559 11.06C75.8714 10.2993 75.6791 9.41508 75.6791 8.40727C75.6791 7.3882 75.8714 6.4974 76.2559 5.73486C76.6404 4.97232 77.1839 4.37959 77.8864 3.95666C78.5889 3.53373 79.4172 3.32227 80.3711 3.32227C80.9195 3.32227 81.4279 3.39328 81.8961 3.53531C82.3644 3.67734 82.7834 3.88095 83.1531 4.14615C83.5229 4.41134 83.8316 4.73454 84.0793 5.11575C84.3271 5.49696 84.5046 5.92674 84.612 6.4051L82.4713 6.85475C82.4116 6.60069 82.3206 6.37082 82.1983 6.16516C82.0761 5.9595 81.9273 5.78272 81.752 5.63483C81.5767 5.48694 81.3748 5.37367 81.1464 5.29504C80.918 5.21641 80.6659 5.17709 80.3901 5.17709C79.8583 5.17709 79.4162 5.31842 79.0639 5.60108C78.7117 5.88374 78.4472 6.26753 78.2706 6.75245C78.094 7.23738 78.0057 7.78687 78.0057 8.40094C78.0057 9.00539 78.094 9.5502 78.2706 10.0354C78.4472 10.5205 78.7117 10.9051 79.0639 11.189C79.4162 11.473 79.8583 11.6149 80.3901 11.6149C80.6697 11.6149 80.9255 11.5742 81.1577 11.4926C81.3898 11.411 81.596 11.2939 81.7761 11.1412C81.9562 10.9885 82.1074 10.804 82.2296 10.5877C82.3518 10.3713 82.4418 10.1313 82.4994 9.86767L84.6345 10.3142C84.5309 10.8063 84.3543 11.246 84.1047 11.633C83.855 12.0201 83.545 12.351 83.1744 12.6258C82.8039 12.9006 82.3821 13.11 81.909 13.2539C81.4359 13.3978 80.9233 13.4698 80.3711 13.4698ZM88.8792 7.5157V13.2715H86.5948V0.175781H88.8476V5.87461H88.6131C88.8845 5.02546 89.2876 4.38779 89.8223 3.96158C90.357 3.53537 91.0249 3.32227 91.826 3.32227C92.5008 3.32227 93.0908 3.46641 93.596 3.75469C94.1011 4.04297 94.4934 4.46262 94.7728 5.01363C95.0522 5.56465 95.1919 6.23508 95.1919 7.02492V13.2715H92.9018V7.37507C92.9018 6.71624 92.731 6.19985 92.3892 5.8259C92.0475 5.45195 91.5771 5.26498 90.9781 5.26498C90.5747 5.26498 90.2145 5.35328 89.8975 5.52988C89.5805 5.70649 89.3316 5.96207 89.1506 6.29665C88.9697 6.63122 88.8792 7.03757 88.8792 7.5157ZM101.956 13.4698C100.971 13.4698 100.121 13.2625 99.4077 12.848C98.6939 12.4335 98.1451 11.8484 97.7615 11.0925C97.3778 10.3366 97.186 9.44531 97.186 8.41852C97.186 7.40859 97.3755 6.52143 97.7546 5.75701C98.1337 4.9926 98.67 4.3957 99.3635 3.96633C100.057 3.53695 100.871 3.32227 101.806 3.32227C102.408 3.32227 102.979 3.41924 103.52 3.61318C104.06 3.80713 104.54 4.10549 104.958 4.50826C105.376 4.91103 105.705 5.42484 105.945 6.04968C106.185 6.67453 106.305 7.4189 106.305 8.28281V8.99578H98.2646V7.44469H105.164L104.097 7.90524C104.097 7.3493 104.011 6.86197 103.84 6.44326C103.668 6.02454 103.414 5.69841 103.076 5.46485C102.739 5.23129 102.32 5.11452 101.819 5.11452C101.318 5.11452 100.891 5.23317 100.539 5.47048C100.187 5.70778 99.918 6.02454 99.7334 6.42076C99.5487 6.81697 99.4563 7.25742 99.4563 7.74211V8.81648C99.4563 9.43758 99.5617 9.96147 99.7726 10.3882C99.9834 10.8148 100.279 11.1364 100.661 11.3528C101.042 11.5693 101.484 11.6775 101.987 11.6775C102.321 11.6775 102.624 11.6298 102.898 11.5343C103.171 11.4387 103.406 11.2961 103.603 11.1064C103.8 10.9167 103.95 10.6822 104.054 10.4031L106.153 10.8376C105.996 11.3636 105.727 11.824 105.345 12.2191C104.962 12.6141 104.485 12.9213 103.913 13.1407C103.341 13.3601 102.689 13.4698 101.956 13.4698ZM108.26 13.2715V3.44531H110.473V5.08992H110.578C110.758 4.52015 111.067 4.08123 111.505 3.77314C111.943 3.46506 112.444 3.31102 113.007 3.31102C113.136 3.31102 113.28 3.31711 113.438 3.3293C113.596 3.34148 113.731 3.35789 113.841 3.37851V5.47873C113.748 5.44802 113.595 5.42043 113.384 5.39594C113.172 5.37144 112.966 5.3592 112.765 5.3592C112.341 5.3592 111.96 5.44996 111.623 5.63148C111.286 5.81301 111.022 6.06356 110.831 6.38313C110.64 6.7027 110.544 7.07248 110.544 7.49248V13.2715H108.26ZM119.167 13.2715L123.738 0.175781H126.722L131.39 13.2715H128.816L126.491 6.47012C126.264 5.76606 126.027 4.97078 125.779 4.08426C125.531 3.19775 125.258 2.1873 124.959 1.05293H125.453C125.162 2.1948 124.897 3.21275 124.658 4.10676C124.419 5.00078 124.194 5.78856 123.982 6.47012L121.733 13.2715H119.167ZM121.83 10.0265V8.13727H128.727V10.0265H121.83ZM135.488 0.175781V13.2715H133.141V0.175781H135.488Z" fill="#D4E4FA"/>
</svg>
